<?xml version="1.0" standalone="no"?>
<!DOCTYPE svg PUBLIC "-//W3C//DTD SVG 20010904//EN"
 "http://www.w3.org/TR/2001/REC-SVG-20010904/DTD/svg10.dtd">
<svg version="1.0" xmlns="http://www.w3.org/2000/svg"
 width="512.000000pt" height="512.000000pt" viewBox="0 0 512.000000 512.000000"
 preserveAspectRatio="xMidYMid meet">

<g transform="translate(0.000000,512.000000) scale(0.100000,-0.100000)"
fill="#332c12" stroke="none">
<path d="M3220 4754 c-668 -61 -1262 -290 -1739 -671 -123 -98 -346 -321 -444
-444 -349 -437 -568 -966 -654 -1579 -22 -158 -25 -706 -5 -870 31 -256 110
-652 135 -677 25 -25 421 -104 677 -135 164 -20 712 -17 870 5 613 86 1142
305 1579 654 123 98 346 321 444 444 349 437 568 966 654 1579 22 158 25 706
5 870 -31 256 -111 652 -135 676 -24 24 -380 98 -627 130 -120 16 -646 28
-760 18z m732 -343 c137 -21 378 -68 385 -75 7 -7 52 -254 68 -376 19 -138 33
-600 19 -600 -43 0 -216 34 -284 56 -408 128 -701 475 -766 904 -7 52 -14 101
-14 109 0 22 415 9 592 -18z m-908 -17 c3 -9 6 -30 6 -49 0 -61 31 -210 65
-311 144 -432 471 -764 898 -913 98 -34 265 -71 324 -71 66 0 68 -4 49 -116
-79 -462 -282 -919 -566 -1270 -82 -101 -263 -282 -364 -364 -351 -284 -808
-487 -1270 -566 -112 -19 -116 -17 -116 49 0 59 -37 226 -71 324 -147 420
-472 745 -892 892 -98 34 -265 71 -324 71 -66 0 -68 4 -49 116 65 380 214 759
420 1068 108 161 186 257 321 392 372 374 841 619 1405 735 162 33 156 33 164
13z m-2194 -2656 c167 -31 356 -118 490 -226 235 -187 378 -454 415 -771 l6
-54 -238 6 c-133 3 -293 12 -363 22 -125 17 -369 61 -377 68 -7 8 -51 252 -68
377 -10 70 -19 230 -22 363 l-6 238 54 -6 c30 -4 79 -11 109 -17z"/>
<path d="M2715 3360 l-110 -110 105 -105 105 -105 -128 -127 -127 -128 -105
105 -105 105 -112 -113 -113 -112 105 -105 105 -105 -128 -127 -127 -128 -105
105 -105 105 -113 -113 -112 -112 323 -322 322 -323 112 112 113 113 -105 105
-105 105 128 127 127 128 105 -105 105 -105 112 113 113 112 -105 105 -105
105 128 127 127 128 105 -105 105 -105 113 113 112 112 -320 320 c-176 176
-322 320 -325 320 -3 0 -55 -49 -115 -110z"/>
</g>
</svg>
